<?xml version="1.0" standalone="no"?>
<!DOCTYPE svg PUBLIC "-//W3C//DTD SVG 20010904//EN"
 "http://www.w3.org/TR/2001/REC-SVG-20010904/DTD/svg10.dtd">
<svg version="1.0" xmlns="http://www.w3.org/2000/svg"
 width="256.000000pt" height="256.000000pt" viewBox="0 0 256.000000 256.000000"
 preserveAspectRatio="xMidYMid meet">

<g transform="translate(0.000000,256.000000) scale(0.100000,-0.100000)"
fill="#000000" stroke="none">
<path d="M1270 2440 c-6 -11 -7 -21 -3 -21 4 -1 -8 -4 -27 -8 -22 -4 -36 -12
-38 -23 -3 -15 2 -17 25 -12 19 4 33 1 41 -9 22 -26 -15 -56 -83 -67 -70 -11
-85 -27 -85 -88 0 -38 -2 -43 -14 -32 -10 8 -21 8 -32 2 -14 -8 -13 -10 9 -16
39 -9 57 -33 57 -75 0 -33 -4 -39 -32 -52 -32 -14 -45 -43 -20 -45 32 -4 35
-7 12 -13 -18 -5 -24 -13 -22 -27 2 -10 5 -20 7 -22 18 -19 362 -24 428 -7 33
9 35 28 5 49 l-22 16 21 0 c32 0 37 16 12 41 l-22 22 21 16 c12 9 39 51 61 93
39 75 40 78 21 88 -16 8 -27 7 -50 -7 -17 -9 -30 -21 -30 -25 0 -12 45 -9 58
4 24 24 19 2 -10 -42 -23 -35 -28 -39 -24 -19 5 23 3 25 -24 21 l-30 -4 14 40
c15 42 13 54 -9 46 -7 -3 -15 2 -18 10 -4 9 -27 17 -64 21 -59 7 -103 34 -103
62 0 20 28 27 46 12 13 -10 17 -10 25 2 5 8 7 19 5 24 -4 12 -66 7 -83 -7 -10
-8 -13 -6 -13 5 0 8 6 17 14 20 9 4 12 14 9 26 -7 26 -19 27 -33 1z m28 -140
c0 -16 -4 -30 -9 -30 -5 0 -9 16 -9 36 0 42 17 38 18 -6z m35 -52 c-10 -11
-19 -15 -21 -8 -5 15 18 41 30 34 5 -3 1 -15 -9 -26z m-44 -57 c-1 -36 -4 -77
-8 -91 -6 -21 -8 -17 -13 23 -8 64 -18 73 -58 52 -32 -17 -32 -18 -27 -71 5
-49 4 -54 -14 -54 -16 0 -19 7 -19 50 0 67 32 103 88 98 32 -3 37 0 40 20 2
13 -2 30 -9 38 -10 12 -9 13 5 8 13 -5 16 -20 15 -73z m-49 59 c20 -12 7 -23
-34 -27 -35 -3 -53 8 -41 27 8 13 55 13 75 0z m155 0 c-3 -5 1 -10 9 -10 9 0
16 -7 16 -15 0 -18 -1 -18 -32 -2 -26 13 -27 37 -2 37 9 0 12 -4 9 -10z m65
-40 c0 -16 -4 -31 -9 -34 -4 -3 -8 12 -8 34 0 22 4 37 8 34 5 -3 9 -18 9 -34z
m-306 12 c6 -10 -22 -47 -30 -40 -3 4 -3 16 1 27 6 21 20 27 29 13z m244 -45
c39 -36 25 -127 -20 -127 -19 0 -20 1 -5 18 52 58 7 151 -47 96 -15 -14 -16
-14 -16 5 0 23 27 41 49 33 9 -3 26 -14 39 -25z m112 -17 c0 -5 -6 -10 -13
-10 -8 0 -22 -9 -32 -21 -16 -17 -17 -25 -8 -50 9 -23 9 -29 0 -26 -7 2 -13
20 -15 39 -2 27 3 41 19 57 24 22 49 28 49 11z m-287 -24 c-4 -17 3 -33 20
-50 17 -17 22 -28 15 -32 -26 -16 -64 76 -41 99 10 11 11 9 6 -17z m135 -23
c-5 -21 -16 -45 -24 -53 -13 -13 -16 -13 -24 0 -13 21 -12 30 3 24 8 -3 18 9
26 31 17 47 32 45 19 -2z m-140 -110 c-10 -2 -26 -2 -35 0 -10 3 -2 5 17 5 19
0 27 -2 18 -5z m130 0 c-15 -2 -42 -2 -60 0 -18 2 -6 4 27 4 33 0 48 -2 33 -4z
m99 -9 c-3 -3 -12 -4 -19 -1 -8 3 -5 6 6 6 11 1 17 -2 13 -5z m-97 -24 c16 -5
-9 -8 -70 -8 -64 0 -85 3 -65 8 39 10 104 10 135 0z"/>
<path d="M473 2228 c-28 -24 -58 -48 -69 -55 -16 -10 -16 -11 -1 -7 19 7 24
-11 6 -22 -23 -14 -42 -82 -49 -174 -4 -52 -14 -111 -23 -130 -15 -35 -15 -34
-16 60 -1 78 -5 100 -22 125 -11 17 -24 40 -29 53 -7 16 -18 22 -39 22 -34 0
-45 -12 -36 -40 5 -16 15 -20 46 -20 58 0 63 -18 53 -197 -8 -145 -8 -147 -16
-78 -10 85 -28 115 -68 115 -33 0 -70 -30 -70 -58 0 -10 -18 -38 -40 -62 -48
-54 -52 -66 -7 -22 39 38 47 40 47 10 0 -13 10 -34 21 -48 20 -24 20 -24 9 -2
-7 13 -9 34 -6 47 6 25 72 82 82 72 6 -6 5 -243 -1 -292 -2 -16 -7 -56 -10
-87 -4 -32 -11 -58 -15 -58 -16 0 -21 36 -15 96 8 69 -6 108 -52 144 -29 23
-74 24 -81 1 -3 -9 0 -11 7 -7 13 9 37 -8 52 -37 10 -17 8 -18 -13 -12 -20 7
-21 6 -9 -9 12 -14 11 -16 -9 -16 -27 0 -24 -32 3 -36 10 -1 25 -11 33 -21 12
-16 84 -227 84 -247 0 -5 -14 10 -30 32 -17 23 -35 43 -40 43 -6 1 -16 2 -22
3 -8 1 -17 30 -24 76 -9 60 -12 70 -18 49 -15 -52 58 -329 86 -329 4 0 8 14 8
31 0 20 4 29 13 27 13 -5 53 -105 45 -114 -3 -3 -22 6 -41 19 -20 14 -57 28
-81 31 -25 4 -48 11 -51 17 -10 16 -25 10 -18 -8 5 -12 2 -15 -10 -10 -20 8
-23 -6 -4 -21 7 -6 45 -20 86 -31 40 -11 87 -28 104 -38 29 -18 117 -133 117
-154 0 -6 -15 -2 -33 10 -75 46 -145 45 -222 -4 l-40 -26 120 7 c131 6 190 -3
219 -35 17 -19 17 -19 -26 -3 -30 11 -83 16 -179 18 -75 1 -141 4 -146 7 -11
7 -23 -1 -23 -15 0 -4 15 -14 32 -22 18 -8 42 -21 53 -30 19 -15 19 -15 -15
-16 -48 0 -19 -20 30 -20 38 0 267 -73 284 -90 7 -7 -4 -8 -34 -4 -37 5 -50 2
-74 -17 -46 -36 -70 -119 -34 -119 6 0 7 -11 4 -24 -5 -20 -1 -27 26 -40 35
-18 83 -22 73 -6 -3 6 -14 10 -24 10 -17 0 -51 52 -51 79 0 10 39 23 124 41
35 8 32 8 -18 4 -33 -3 -71 -10 -84 -15 -22 -8 -23 -8 -12 6 19 23 86 37 148
30 112 -13 322 -76 422 -125 31 -16 76 -33 100 -40 25 -6 52 -18 60 -25 8 -7
28 -17 43 -20 15 -4 26 -10 23 -12 -8 -8 -186 20 -186 30 0 5 7 7 15 3 8 -3
15 -2 15 3 0 11 -118 65 -210 96 -107 37 -234 58 -296 50 -57 -7 -73 -16 -98
-57 l-17 -27 43 -5 c24 -3 83 -8 132 -11 108 -7 191 -27 269 -66 32 -15 55
-24 52 -19 -3 6 -1 10 4 10 6 0 11 -5 11 -10 0 -6 25 -8 69 -4 80 8 201 -3
201 -18 0 -11 -295 -5 -360 8 l-35 7 23 -25 c13 -14 22 -31 20 -38 -2 -7 18
-20 47 -30 28 -9 83 -34 123 -55 78 -41 77 -41 170 -4 40 16 47 9 56 -57 9
-70 30 -102 72 -110 57 -11 62 8 13 55 -49 47 -47 65 4 27 51 -39 146 -30 133
12 -8 24 2 35 57 66 52 31 53 33 32 60 -21 28 -7 39 23 18 35 -25 87 -42 126
-42 17 0 77 14 133 32 82 26 99 34 82 40 -18 7 -19 11 -9 24 24 28 -3 33 -110
18 -58 -7 -127 -14 -153 -14 -82 0 -42 17 55 24 52 3 134 17 183 31 133 37
302 75 366 82 62 6 102 -8 93 -32 -8 -19 6 -19 30 -2 15 11 17 21 11 55 -4 23
-11 45 -17 48 -6 4 -8 -1 -4 -12 9 -32 -6 -44 -47 -37 -27 4 -37 11 -37 24 0
31 -39 42 -145 42 -154 -1 -255 -23 -390 -88 -38 -18 -86 -36 -105 -39 -19 -3
-28 -3 -20 0 8 4 56 26 105 50 124 60 250 95 365 102 63 4 87 8 70 13 -17 5
-4 7 40 8 92 1 138 -14 183 -61 44 -46 57 -34 36 34 -22 68 -85 93 -184 75
-34 -6 -37 -5 -21 6 120 79 138 88 192 97 33 6 93 18 134 27 108 23 182 80 86
67 -38 -6 -49 -2 -96 30 -59 41 -99 46 -158 20 l-37 -17 95 -24 c52 -13 118
-24 147 -25 29 -1 49 -6 46 -11 -3 -5 -35 -7 -72 -3 -182 17 -220 18 -272 6
-30 -7 -60 -17 -67 -23 -7 -5 -14 -8 -17 -5 -2 2 17 18 44 35 35 23 56 48 81
95 36 69 90 132 132 154 18 9 42 12 72 8 39 -6 48 -3 70 19 25 25 36 55 17 42
-5 -3 -26 2 -45 12 -29 13 -40 14 -62 4 -14 -6 -28 -20 -31 -31 -6 -21 -36
-35 -53 -25 -5 3 -10 0 -10 -8 0 -8 -9 -25 -21 -38 l-20 -24 5 27 c10 45 25
78 36 78 5 0 10 -5 10 -11 0 -23 57 58 125 176 22 39 24 46 8 32 -11 -9 -25
-17 -32 -17 -14 0 -55 -42 -83 -85 -13 -20 -18 -23 -14 -9 18 60 66 267 66
280 0 8 -4 13 -9 10 -12 -8 -41 -98 -86 -270 -45 -170 -97 -307 -112 -293 -2
3 1 16 8 29 7 12 22 69 35 125 20 93 21 109 9 170 -31 159 -114 303 -175 303
-8 0 0 -9 18 -20 38 -23 41 -30 10 -23 -21 4 -21 3 3 -11 51 -30 79 -140 79
-316 0 -169 -26 -311 -67 -371 -17 -24 -45 -57 -62 -73 l-31 -30 32 65 c40 81
46 155 23 270 -19 94 -29 119 -49 119 -23 0 -26 -49 -5 -61 40 -21 16 -149
-58 -317 -25 -56 -49 -102 -54 -102 -12 0 -12 2 11 60 23 58 25 92 8 119 -7
11 -8 26 -3 37 5 11 9 22 9 26 1 3 4 10 9 14 10 11 9 34 -3 34 -19 0 -50 -40
-50 -66 0 -37 -82 -129 -161 -180 -61 -38 -70 -49 -112 -131 -25 -49 -64 -112
-87 -140 -45 -58 -124 -103 -143 -84 -8 8 -6 15 11 27 28 19 28 34 1 34 -14 0
-19 5 -16 14 10 25 -13 84 -40 106 -33 25 -63 26 -96 0 -14 -11 -39 -20 -57
-20 -42 0 -67 -15 -85 -51 -15 -27 -14 -33 4 -75 l20 -45 -22 7 c-66 19 -124
79 -172 174 -42 85 -68 114 -133 148 -44 24 -68 45 -91 80 -37 59 -38 65 -6
86 14 9 25 25 25 35 0 27 -35 54 -59 46 -22 -7 -25 -17 -12 -50 6 -13 2 -32
-8 -55 -12 -23 -15 -45 -10 -65 l7 -30 1 28 c1 37 21 25 21 -13 0 -66 -61 -4
-91 92 -23 72 -25 194 -5 224 14 20 11 74 -5 74 -17 0 -42 -52 -62 -128 -40
-155 -22 -245 69 -342 26 -28 45 -52 43 -55 -7 -7 -205 187 -219 214 -8 15 -8
21 -1 17 14 -9 14 15 0 165 -13 131 -2 275 27 381 18 64 33 82 90 102 32 12
34 15 14 15 -14 0 -45 -10 -70 -22 -75 -38 -149 -184 -151 -295 l0 -57 -16 40
c-33 84 -17 231 54 515 19 74 43 178 55 230 11 52 22 106 25 119 4 16 2 22 -6
17 -35 -22 19 60 60 90 22 16 44 24 66 22 39 -3 56 11 51 43 -6 42 -48 37
-105 -13z m-89 -852 c-3 -15 -8 -25 -11 -23 -2 3 -1 17 3 31 3 15 8 25 11 23
2 -3 1 -17 -3 -31z m-175 -26 c0 -10 -3 -8 -9 5 -12 27 -12 43 0 25 5 -8 9
-22 9 -30z m2 -307 c13 -17 13 -17 -6 -3 -11 8 -22 16 -24 17 -2 2 0 3 6 3 6
0 17 -8 24 -17z m1646 -265 c-3 -7 -5 -2 -5 12 0 14 2 19 5 13 2 -7 2 -19 0
-25z m-12 -45 c-3 -16 -10 -32 -15 -37 -5 -5 -4 7 2 27 13 43 23 50 13 10z
m-1478 -22 c40 -18 80 -43 90 -54 14 -15 14 -19 3 -14 -8 3 -55 22 -104 42
-49 21 -123 43 -165 51 l-76 13 90 -2 c79 -2 99 -6 162 -36z m349 -109 c-5 -4
-56 92 -56 105 0 4 14 -16 30 -46 17 -30 28 -56 26 -59z m1094 59 c-5 -11 -15
-23 -21 -27 -6 -3 -3 5 6 20 20 30 30 35 15 7z m-150 -76 c-7 -8 -17 -15 -23
-15 -5 0 -2 9 8 20 21 23 35 19 15 -5z m-770 -47 c0 -5 -6 -8 -13 -8 -14 0
-37 41 -37 63 1 13 50 -42 50 -55z m328 0 c19 -19 14 -30 -7 -18 -11 5 -36 10
-56 10 -22 0 -34 4 -30 10 9 14 78 13 93 -2z m-17 -44 c17 -8 29 -18 26 -21
-3 -2 -14 0 -25 6 -12 6 -35 11 -52 11 -18 0 -29 4 -25 10 9 15 42 12 76 -6z
m-601 -24 c15 -5 -7 -6 -55 -3 -44 3 -82 7 -84 9 -9 8 115 2 139 -6z m517 -22
c-3 -8 -6 -5 -6 6 -1 11 2 17 5 13 3 -3 4 -12 1 -19z m-432 -8 c8 -13 -5 -13
-25 0 -13 8 -13 10 2 10 9 0 20 -4 23 -10z m1205 -5 c0 -8 -170 -57 -183 -52
-21 7 35 30 103 43 84 15 80 15 80 9z m-230 -34 c-26 -15 -66 -24 -55 -13 6 5
19 12 30 15 32 8 41 7 25 -2z m-855 -11 l20 -9 -20 0 c-11 0 -27 4 -35 9 -13
9 -13 10 0 9 8 0 24 -4 35 -9z m519 -16 c9 -8 16 -24 16 -35 0 -24 -45 -26
-116 -4 l-49 14 -33 -32 c-18 -18 -42 -46 -52 -63 -33 -52 -107 -70 -160 -38
l-25 15 30 -6 c17 -3 37 -8 46 -11 11 -3 42 22 89 70 64 66 78 76 119 82 25 4
55 10 66 15 31 12 52 10 69 -7z m147 -46 l23 -33 -27 24 c-15 14 -27 28 -27
33 0 15 8 8 31 -24z m-412 -34 c-49 -53 -75 -66 -111 -55 l-33 11 35 -4 c29
-3 42 3 77 35 48 44 69 52 32 13z m291 -69 c-14 -15 -34 -25 -49 -25 -24 1
-24 2 11 20 20 11 40 25 43 31 4 5 10 8 13 5 3 -4 -5 -17 -18 -31z"/>
<path d="M1298 353 c7 -3 16 -2 19 1 4 3 -2 6 -13 5 -11 0 -14 -3 -6 -6z"/>
<path d="M1046 2255 c5 -11 0 -13 -24 -6 -56 17 -57 1 -7 -103 26 -53 49 -96
52 -96 19 0 43 25 43 45 0 28 -41 60 -65 51 -10 -3 -18 1 -21 12 -3 9 -12 30
-20 46 -11 21 -11 27 -2 24 49 -19 56 -18 61 3 6 24 1 39 -13 39 -5 0 -7 -7
-4 -15z m21 -157 c-3 -8 -6 -5 -6 6 -1 11 2 17 5 13 3 -3 4 -12 1 -19z"/>
<path d="M730 2214 c-230 -89 -310 -158 -310 -268 0 -34 -7 -61 -20 -81 -11
-16 -20 -33 -20 -37 0 -10 123 60 181 104 66 51 118 77 163 85 41 6 106 -15
84 -28 -13 -8 -11 -9 36 -23 36 -11 47 39 16 75 -19 22 -21 23 -31 6 -10 -17
-12 -16 -31 9 -20 25 -25 26 -82 21 l-61 -5 35 18 c46 25 71 25 106 -2 l29
-21 -22 23 -22 23 21 41 c11 23 29 53 39 68 35 49 36 49 -111 -8z m-90 -70
c-25 -14 -69 -49 -99 -77 -48 -47 -52 -49 -35 -19 22 39 74 84 124 105 55 24
60 19 10 -9z"/>
<path d="M1700 2254 c0 -1 13 -31 30 -66 16 -34 30 -70 30 -78 0 -9 -18 -33
-39 -54 -45 -44 -57 -82 -30 -96 11 -7 27 -6 44 0 22 8 25 13 16 24 -13 16
-10 19 39 35 58 18 134 -9 190 -68 61 -65 160 -144 160 -129 0 7 -11 52 -24
100 -25 88 -61 161 -96 193 -11 10 -17 21 -15 25 3 4 -23 19 -58 33 -59 24
-247 86 -247 81z m278 -145 c30 -29 58 -69 49 -69 -1 0 -33 29 -69 65 -40 38
-56 59 -40 51 15 -8 42 -29 60 -47z m-148 -9 c30 -25 32 -29 15 -30 -11 0 -39
-9 -62 -20 -33 -14 -43 -16 -43 -6 0 8 7 19 15 26 8 7 15 23 15 36 0 32 19 30
60 -6z"/>
<path d="M1974 2245 c-8 -20 3 -33 41 -49 18 -8 39 -24 45 -37 11 -20 10 -21
-12 -17 -22 4 -20 0 17 -36 44 -43 84 -129 86 -189 1 -26 3 -22 10 18 19 103
22 162 9 170 -8 5 -10 2 -6 -11 3 -11 2 -32 -2 -47 -7 -26 -9 -23 -31 45 -26
82 -58 131 -101 153 -36 19 -49 19 -56 0z"/>
<path d="M2272 2088 c-17 -17 -15 -35 8 -58 23 -23 22 -49 -6 -200 -8 -41 -14
-113 -14 -160 0 -94 -11 -94 -31 0 -13 64 -49 164 -56 157 -2 -3 7 -40 20 -84
40 -127 67 -266 68 -355 1 -66 3 -77 10 -52 5 17 10 127 11 245 3 212 3 214
25 217 16 2 26 -5 38 -27 16 -32 13 -48 -19 -92 -6 -8 2 -2 18 14 23 24 27 36
23 63 -8 46 12 44 46 -3 31 -43 37 -34 8 12 -32 53 -69 85 -96 85 -14 0 -25 3
-25 8 0 25 25 88 38 98 14 10 14 16 4 38 -6 14 -9 39 -6 55 5 23 2 32 -14 40
-26 14 -35 14 -50 -1z"/>
<path d="M1914 1856 c-16 -7 -49 -35 -72 -62 l-41 -49 37 -19 c20 -10 51 -31
67 -46 30 -28 67 -50 82 -50 4 0 1 5 -7 10 -28 18 21 10 110 -19 56 -17 86
-32 88 -43 3 -14 -6 -12 -64 8 -37 14 -69 23 -71 21 -2 -3 26 -15 63 -28 40
-14 72 -33 82 -47 19 -29 9 -38 -25 -23 l-28 11 27 -24 c14 -13 36 -41 48 -62
l21 -39 -6 75 c-3 41 -12 100 -19 130 -11 49 -14 53 -25 35 -12 -20 -12 -20
-6 0 16 46 16 54 -3 91 -40 78 -133 145 -199 144 -15 -1 -42 -7 -59 -14z m81
-56 c8 -13 -5 -13 -25 0 -13 8 -13 10 2 10 9 0 20 -4 23 -10z m33 -79 c57 -29
53 -33 -9 -10 -27 11 -73 24 -102 29 l-52 9 61 -3 c36 -2 77 -12 102 -25z"/>
<path d="M462 1844 c-32 -16 -85 -81 -115 -140 -20 -38 -53 -171 -62 -245 -5
-43 -3 -58 9 -68 13 -11 17 -7 31 24 8 21 15 41 15 46 0 22 145 98 189 99 13
1 13 2 -3 12 -25 14 -85 -4 -124 -37 -17 -14 -35 -25 -41 -25 -18 0 -12 35 12
71 24 36 45 44 149 54 44 5 70 15 118 48 52 34 70 41 112 41 78 0 78 1 79
-273 3 -449 5 -494 22 -527 21 -41 67 -59 144 -55 35 2 86 61 53 61 -5 0 -10
-6 -10 -14 0 -16 -22 -26 -58 -26 -64 1 -72 33 -72 274 l0 189 63 -6 c57 -5
65 -9 98 -45 19 -23 50 -69 69 -104 56 -106 138 -225 180 -258 65 -51 131 -70
235 -66 53 2 113 11 145 22 l55 19 2 140 c2 77 5 161 7 188 l3 47 -102 0 -102
0 5 -48 c4 -42 1 -52 -23 -78 -21 -23 -24 -24 -15 -6 11 22 -2 33 -15 12 -7
-12 -45 -33 -45 -25 0 3 18 24 40 46 46 47 50 76 19 120 -27 38 -49 38 -49 -1
0 -16 -4 -30 -8 -30 -9 0 -9 96 -1 104 3 3 18 -1 33 -9 34 -18 36 -18 36 -5 0
6 -7 10 -15 10 -8 0 -15 5 -15 10 0 20 66 10 100 -15 43 -31 64 -32 95 0 33
32 31 45 -4 45 -16 0 -45 7 -64 15 -71 30 -128 18 -179 -37 -24 -25 -28 -38
-28 -87 0 -67 -9 -121 -20 -121 -4 0 -13 36 -20 81 -9 60 -10 83 -1 92 17 17
13 26 -9 20 -32 -8 -60 -52 -60 -92 0 -23 14 -62 40 -107 44 -79 58 -88 158
-99 49 -6 61 -4 84 14 43 34 56 110 25 149 -13 16 64 17 81 0 8 -8 12 -61 12
-174 l0 -162 -31 -6 c-85 -17 -171 2 -244 55 -50 36 -109 112 -199 257 -32 51
-78 109 -102 129 l-43 37 27 16 c65 40 102 111 102 195 0 149 285 196 417 69
36 -34 43 -47 44 -80 0 -29 5 -17 20 51 10 50 19 91 19 93 0 1 -13 2 -29 2
-16 0 -64 7 -107 16 -151 31 -289 7 -342 -61 l-20 -25 -29 29 c-44 43 -88 51
-294 51 l-187 0 -12 31 c-22 53 -73 83 -149 87 -47 2 -75 -2 -99 -14z m78 -48
c0 -2 -7 -7 -16 -10 -8 -3 -12 -2 -9 4 6 10 25 14 25 6z m85 -62 c-109 -17
-133 -26 -199 -77 l-51 -40 35 37 c71 76 117 93 255 94 40 0 32 -3 -40 -14z
m466 -41 c83 -49 53 -242 -47 -304 -20 -12 -59 -24 -86 -27 l-50 -5 4 160 c2
117 7 164 17 176 19 23 123 23 162 0z m525 -279 c18 -15 17 -15 -11 -8 -16 5
-47 8 -67 8 -22 0 -33 3 -25 8 21 13 82 9 103 -8z"/>
<path d="M2376 1606 c-8 -31 7 -70 33 -88 11 -8 31 -38 44 -67 l25 -52 -3 73
c-3 98 -2 92 -31 127 -31 38 -60 40 -68 7z"/>
<path d="M560 1560 c20 -13 33 -13 25 0 -3 6 -14 10 -23 10 -15 0 -15 -2 -2
-10z"/>
<path d="M2150 565 c30 -7 57 -12 59 -9 8 7 -51 24 -82 23 -26 -1 -21 -3 23
-14z"/>
<path d="M1490 227 c0 -9 -8 -21 -17 -26 -16 -9 -16 -10 -2 -11 25 0 45 28 31
42 -9 9 -12 8 -12 -5z"/>
</g>
</svg>
